HIERARCHY
ROOT Spine
{
    OFFSET 0.0 0.0 -0.0
    CHANNELS 6 Xposition Yposition Zposition Zrotation Xrotation Yrotation
    JOINT ShoulderCenter
    {
        OFFSET 0.0 30.90260124206543 0.0
        CHANNELS 3 Zrotation Xrotation Yrotation
        JOINT LeftShoulder
        {
            OFFSET 18.54991912841797 0.0 0.0
            CHANNELS 3 Zrotation Xrotation Yrotation
            JOINT LeftElbow
            {
                OFFSET 24.326644897460938 0.0 0.0
                CHANNELS 3 Zrotation Xrotation Yrotation
                JOINT LeftHand
                {
                    OFFSET 29.929767608642578 0.0 0.0
                    CHANNELS 3 Zrotation Xrotation Yrotation
                    End Site
                    {
                        OFFSET 11.971907615661621 0.0 0.0
                    }
                }
            }
        }
        JOINT RightShoulder
        {
            OFFSET -18.54991912841797 0.0 0.0
            CHANNELS 3 Zrotation Xrotation Yrotation
            JOINT RightElbow
            {
                OFFSET -24.326644897460938 0.0 0.0
                CHANNELS 3 Zrotation Xrotation Yrotation
                JOINT RightHand
                {
                    OFFSET -29.929767608642578 0.0 0.0
                    CHANNELS 3 Zrotation Xrotation Yrotation
                    End Site
                    {
                        OFFSET -11.971907615661621 0.0 0.0
                    }
                }
            }
        }
        End Site
        {
            OFFSET 0.0 12.361042022705078 0.0
        }
    }
    JOINT LeftHip
    {
        OFFSET 19.418057889837378 -19.418057889837378 0.0
        CHANNELS 3 Zrotation Xrotation Yrotation
        JOINT LeftKnee
        {
            OFFSET 0.0 -35.15361785888672 0.0
            CHANNELS 3 Zrotation Xrotation Yrotation
            JOINT LeftFoot
            {
                OFFSET 0.0 -39.03877258300781 0.0
                CHANNELS 3 Zrotation Xrotation Yrotation
                End Site
                {
                    OFFSET 0.0 0.0 15.615509033203125
                }
            }
        }
    }
    JOINT RightHip
    {
        OFFSET -19.418057889837378 -19.418057889837378 0.0
        CHANNELS 3 Zrotation Xrotation Yrotation
        JOINT RightKnee
        {
            OFFSET 0.0 -35.15361785888672 0.0
            CHANNELS 3 Zrotation Xrotation Yrotation
            JOINT RightFoot
            {
                OFFSET 0.0 -39.03877258300781 0.0
                CHANNELS 3 Zrotation Xrotation Yrotation
                End Site
                {
                    OFFSET 0.0 0.0 15.615509033203125
                }
            }
        }
    }
}
MOTION
Frames: 5
Frame Time: 0.03333333333333333
123.89999389648438 -0.6000000238418579 28.299999237060547 0.5562579056846709 -1.1123444213014753 -91.90862244684459 -1.3777076885968415e-07 -2.151976047349444e-08 -3.231377176977022 103.85866260228615 20.653741659502984 164.53252642645558 -1.102612043877186e-06 -8.740098850002541e-08 52.318481508195404 3.1805546814635164e-15 3.531125038440127e-31 1.2722218725854065e-14 -108.05299917614924 -10.578568934650527 -169.438184141381 -2.0055579537660568e-06 1.2764308620440562e-06 -38.56649044282921 -3.531125038440127e-31 6.3611093629270335e-15 6.3611093629270335e-15 -16.59283660703015 -1.4112697690280749 -12.717333448062277 -4.373143785310741 -1.2363553757341157 0.6507757070734776 1.5902773407317584e-15 -1.590277340731758e-15 8.74652537402467e-15 2.4577916576483263 -25.002898526133123 -11.4610411805441 -10.04921198062384 40.179496227373164 44.809765313119705 -1.5902773407317582e-15 -1.5902773407317582e-15 -3.776908684237925e-15
117.49999237060547 -0.7000000476837158 27.700000762939453 0.9270351824850949 -1.1122547208340356 -89.75926585580258 3.803713787636145e-08 9.539634828539265e-08 -5.051006915998021 104.13588599122633 15.49155236796188 167.2233526102487 1.0080519922884878e-06 4.483338045976056e-06 55.062717589661986 0.0 0.0 6.3611093629270335e-15 -108.21019779407071 -7.1480952200811405 -166.56043006228526 3.847139448222932e-06 1.5453742988322978e-06 -37.8701413850271 3.1805546814635168e-15 -3.1805546814635168e-15 8.827812596100317e-32 -16.953314413391464 4.116246336675437 -15.78897977791638 -4.700042790288415 -3.198707682326862 1.4554019498062243 1.5902773407317584e-15 -1.1034765745125397e-32 -7.951386703658792e-16 3.2042461814521994 -29.5285305398169 -16.092958067441927 -9.95058119658037 21.647730270467584 28.759754387698884 -3.975693351829395e-16 3.975693351829395e-16 -2.7954093880050433e-15
110.69999694824219 -1.3000000715255737 27.000001907348633 0.7416401463825321 -1.29763341584141 -87.49852023501084 -9.618290524352322e-08 -2.3991667717842113e-08 -6.691685503751632 103.62109461313008 11.205592992764986 170.2286971251072 -6.921677838981467e-07 1.5433048687720464e-06 55.592415081938604 0.0 0.0 0.0 -108.59085168136059 -4.513390722094554 -163.05535412045626 -1.9558740428881097e-06 1.6964417019153122e-06 -36.55076463679878 0.0 0.0 0.0 -16.781321002050536 10.450598413285203 -18.65762704741673 -4.950796128049476 -5.56632949053322 2.2856769999504274 0.0 0.0 -2.782985346280577e-15 3.97634157523817 -27.42742291628224 -14.168911892691591 -4.612680898626421 -1.9250057914803127 -2.352700068120591 1.5902773407317584e-15 -1.5902773407317584e-15 -3.578124016646457e-15
103.30000305175781 -2.5 26.0 -0.18541958096287411 -2.038784587994883 -86.28379597303541 2.4484634634546172e-08 -1.5311606234366656e-07 -7.483784326833826 102.83352844559869 8.378028394733862 170.96534734245074 1.759361905876757e-06 -3.896565472039812e-06 56.895545038535225 -1.7655625192200634e-31 6.3611093629270335e-15 3.1805546814635168e-15 -109.45502641097431 -2.5813240601445315 -159.56661899344166 -6.628997784953076e-07 -4.947480744389434e-06 -34.54422775045023 -3.1805546814635168e-15 1.7655625192200634e-31 -6.3611093629270335e-15 -16.94556971485124 17.809660577108016 -21.36432465936263 -5.0384910528584985 -7.694206718693092 2.8192667909607003 -2.3854160110976376e-15 -7.448466877959642e-32 3.578124016646457e-15 4.482146448154674 -22.873224946329273 -10.29448507590412 -0.17044673023193538 -12.903200798544116 -13.39762379878413 -3.1805546814635164e-15 3.1805546814635164e-15 -2.385416011097637e-15
95.20000457763672 -3.700000047683716 24.799999237060547 -1.8535855654564204 -2.7777147426112103 -86.16690205469328 -8.009210802374861e-08 1.8473267674897134e-07 -7.4088905311612265 102.18699693474314 10.128247081106702 169.3691589009669 3.0998587333074703e-06 -1.213510186371675e-06 57.21427176685345 1.7655625192200634e-31 -6.3611093629270335e-15 3.1805546814635168e-15 -110.54761985145994 -0.8358948311953724 -156.60397702334654 4.642015086055385e-06 2.727025810395351e-06 -33.01886831587164 -6.361109362927033e-15 3.1805546814635164e-15 1.7655625192200634e-31 -17.051182445644965 22.58672544221091 -21.92478383090409 -5.1588901786828 -3.66287334462758 1.269512901487794 -7.951386703658792e-16 -2.3854160110976376e-15 -3.975693351829396e-16 5.1113406765272025 -21.05298433611396 -10.104762383648508 -3.947655627961326 -7.954016801264591 -9.382611474557297 -4.770832022195275e-15 3.1805546814635168e-15 1.987846675914698e-15
